<svg width="43" height="40" viewBox="0 0 43 40" fill="none" xmlns="http://www.w3.org/2000/svg">
<g clip-path="url(#clip0_0_2717)">
<path d="M41.678 0L23.3701 13.5465L26.7746 5.56317L41.678 0Z" fill="#E17726"/>
<path d="M1.03175 0.015625L15.8953 5.56379L19.1279 13.6518L1.03175 0.015625ZM34.3099 28.8093L42.4017 28.9633L39.5737 38.5703L29.6999 35.8518L34.3099 28.8093ZM8.35642 28.8093L12.9492 35.8518L3.09208 38.5705L0.28125 28.9633L8.35642 28.8093Z" fill="#E27625"/>
<path d="M18.6885 11.5918L19.0192 22.2723L9.12402 21.8222L11.9387 17.5758L11.9744 17.535L18.6885 11.5918ZM23.8757 11.4727L30.6924 17.5353L30.7277 17.576L33.5424 21.8223L23.6494 22.2723L23.8757 11.4727ZM13.2392 28.8405L18.6422 33.0503L12.3659 36.0805L13.2392 28.8405ZM29.4285 28.8398L30.2837 36.0807L24.0249 33.05L29.4285 28.8398Z" fill="#E27625"/>
<path d="M24.1626 32.6543L30.5138 35.7296L24.6059 38.5373L24.6673 36.6816L24.1626 32.6543ZM18.5014 32.6556L18.0166 36.6513L18.0564 38.5351L12.1348 35.7296L18.5014 32.6556Z" fill="#D5BFB2"/>
<path d="M16.6676 23.666L18.3273 27.154L12.6768 25.4987L16.6676 23.666ZM25.9984 23.6664L30.0081 25.4987L24.3391 27.1535L25.9984 23.6664Z" fill="#233447"/>
<path d="M13.6711 28.8056L12.7578 36.3123L7.8623 28.9698L13.6711 28.8056ZM28.9961 28.8058L34.8051 28.9698L29.8913 36.3126L28.9961 28.8058ZM33.6855 21.3984L29.458 25.7069L26.1985 24.2174L24.638 27.4981L23.615 21.8566L33.6855 21.3984ZM8.9793 21.3984L19.0518 21.8566L18.0286 27.4981L16.4678 24.2179L13.2256 25.7071L8.9793 21.3984Z" fill="#CC6228"/>
<path d="M8.69434 20.5145L13.4773 25.368L13.643 30.1595L8.69434 20.5145ZM33.9772 20.5059L29.0195 30.168L29.2062 25.368L33.9772 20.5059ZM18.8178 20.8102L19.0103 22.0219L19.486 25.0404L19.1802 34.3112L17.7343 26.8637L17.7338 26.7867L18.8178 20.8102ZM23.8463 20.7934L24.9332 26.7867L24.9327 26.8637L23.4832 34.3299L23.4258 32.4624L23.1997 24.9854L23.8463 20.7934Z" fill="#E27525"/>
<path d="M29.6312 25.1738L29.4694 29.3368L24.4237 33.268L23.4037 32.5473L24.5471 26.6582L29.6312 25.1738ZM13.0527 25.1738L18.1192 26.6582L19.2626 32.5473L18.2426 33.268L13.1967 29.3365L13.0527 25.1738Z" fill="#F5841F"/>
<path d="M11.1699 34.8105L17.6253 37.8692L17.5979 36.563L18.1381 36.0889H24.5271L25.0868 36.5614L25.0454 37.8665L31.4599 34.8182L28.3386 37.3975L24.5644 39.9897H18.0863L14.3146 37.3869L11.1699 34.8105Z" fill="#C0AC9D"/>
<path d="M23.7003 32.2461L24.613 32.8909L25.1478 37.1583L24.3738 36.5048H18.2945L17.5352 37.1714L18.0525 32.8913L18.9655 32.2461H23.7003Z" fill="#161616"/>
<path d="M40.469 0.375L42.6667 6.96783L41.2942 13.634L42.2715 14.3878L40.949 15.3968L41.943 16.1645L40.6268 17.363L41.4348 17.9482L39.2905 20.4525L30.4955 17.8917L30.4193 17.8508L24.0815 12.5045L40.469 0.375ZM2.19767 0.375L18.5853 12.5045L12.2473 17.8508L12.1712 17.8917L3.37617 20.4525L1.23183 17.9482L2.03917 17.3635L0.723833 16.1645L1.71583 15.3977L0.3735 14.3858L1.38767 13.6315L0 6.96817L2.19767 0.375Z" fill="#763E1A"/>
<path d="M30.065 17.3325L39.3838 20.0457L42.4113 29.3767H34.424L28.9207 29.446L32.923 21.6447L30.065 17.3325ZM12.601 17.3325L9.74249 21.6447L13.7453 29.446L8.24448 29.3767H0.271484L3.28198 20.0459L12.601 17.3325ZM27.2303 5.51953L24.6238 12.5594L24.0707 22.0694L23.859 25.0502L23.8422 32.6649H18.8237L18.8073 25.0645L18.595 22.0669L18.0417 12.5594L15.4355 5.51953H27.2303Z" fill="#F5841F"/>
</g>
<defs>
<clipPath id="clip0_0_2717">
<rect width="42.6667" height="40" fill="white"/>
</clipPath>
</defs>
</svg>
